<?xml version="1.0" encoding="UTF-8"?>
<svg version="1.1" xmlns="http://www.w3.org/2000/svg" width="500" height="500">
<path d="M0 0 C165 0 330 0 500 0 C500 165 500 330 500 500 C335 500 170 500 0 500 C0 335 0 170 0 0 Z " fill="#000000" transform="translate(0,0)"/>
<path d="M0 0 C2.43252754 -0.36914349 2.43252754 -0.36914349 5.55545044 -0.36076355 C6.73618134 -0.36488754 7.91691223 -0.36901154 9.13342285 -0.3732605 C10.43533569 -0.36247467 11.73724854 -0.35168884 13.07861328 -0.34057617 C14.4582009 -0.3397303 15.83778988 -0.34020426 17.21737671 -0.34190369 C20.96932231 -0.34276663 24.72098186 -0.32509286 28.47286081 -0.30418181 C32.39130623 -0.28546459 36.30975775 -0.2836685 40.22824097 -0.28010559 C47.65142455 -0.27077051 55.07447605 -0.24613704 62.49760139 -0.21605712 C70.94728699 -0.18255852 79.39697881 -0.16603855 87.84671426 -0.15097082 C105.23121932 -0.11958868 122.61559571 -0.06679988 140 0 C139.03748063 1.44831926 138.07436373 2.89624142 137.11099243 4.34399414 C136.5747204 5.15034805 136.03844837 5.95670197 135.48592567 6.78749084 C133.96831599 9.04717676 132.40275438 11.25703419 130.7734375 13.4375 C130.21527344 14.18902344 129.65710938 14.94054687 129.08203125 15.71484375 C128.51871094 16.46894531 127.95539063 17.22304687 127.375 18 C126.25580013 19.49849911 125.13870919 20.99857502 124.0234375 22.5 C123.37810059 23.31259277 122.73276367 24.12518555 122.06787109 24.96240234 C120.33919406 27.50174115 119.2771435 29.60639862 118.10791016 32.40087891 C115.63697083 37.66628895 113.11325487 41.98035272 108 45 C95.8819243 47.78078809 82.47740291 45.98732396 70.17474365 45.22271729 C51.57169851 43.13075002 51.57169851 43.13075002 34.19683838 47.7557373 C29.71019579 52.04586993 26.87665819 56.9664269 24.25314331 62.5425415 C22.20299384 66.56295737 19.42063572 69.97763461 16.625 73.5 C15.65012089 74.78900831 14.67824664 76.0803013 13.7109375 77.375 C13.25557617 77.98214844 12.80021484 78.58929688 12.33105469 79.21484375 C9.17715647 83.44472339 6.08386165 87.71887441 3 92 C-1.28825805 87.98764091 -4.61670453 83.60020178 -8 78.8125 C-9.14444339 77.21087472 -10.28897741 75.60931419 -11.43359375 74.0078125 C-12.01866699 73.18571289 -12.60374023 72.36361328 -13.20654297 71.51660156 C-16.14320223 67.39584419 -19.1024526 63.29147178 -22.0625 59.1875 C-22.59810547 58.44153564 -23.13371094 57.69557129 -23.68554688 56.92700195 C-24.19279297 56.222771 -24.70003906 55.51854004 -25.22265625 54.79296875 C-25.69590332 54.13345215 -26.16915039 53.47393555 -26.65673828 52.79443359 C-27.83890131 51.21520817 -29.12939625 49.7183256 -30.43359375 48.23828125 C-32 46 -32 46 -31.77832031 44.11621094 C-30.87734354 41.66650371 -29.702483 39.97341237 -28.11328125 37.90234375 C-27.20968872 36.71306274 -27.20968872 36.71306274 -26.2878418 35.49975586 C-25.635979 34.65421143 -24.98411621 33.80866699 -24.3125 32.9375 C-22.94975688 31.14641433 -21.58779795 29.35473178 -20.2265625 27.5625 C-19.17903809 26.18771484 -19.17903809 26.18771484 -18.11035156 24.78515625 C-14.76188717 20.36598899 -11.47245147 15.90397643 -8.1875 11.4375 C-7.59557861 10.63497803 -7.00365723 9.83245605 -6.39379883 9.00561523 C-4.20574603 6.0332934 -2.04780479 3.07170718 0 0 Z " fill="#FBFBFB" transform="translate(210,170)"/>
<path d="M0 0 C0.66 0 1.32 0 2 0 C3.85541812 2.42277738 5.59534159 4.8562453 7.3125 7.375 C8.39615476 8.93818028 9.48082473 10.50065718 10.56640625 12.0625 C11.1298877 12.87589844 11.69336914 13.68929687 12.27392578 14.52734375 C15.05376709 18.5095549 17.90153423 22.44174282 20.75 26.375 C21.29124512 27.1285376 21.83249023 27.8820752 22.39013672 28.65844727 C24.76136526 31.95302771 27.1472907 35.22019083 29.66796875 38.40234375 C30.41691406 39.36269531 31.16585937 40.32304687 31.9375 41.3125 C32.58589844 42.11300781 33.23429688 42.91351563 33.90234375 43.73828125 C35 46 35 46 34.56640625 48.296875 C32.359228 52.10577113 29.72558024 55.48712251 27 58.9375 C21.96863589 65.40220973 17.11371433 71.94720639 12.4140625 78.65625 C12.02796845 79.17726068 11.64187441 79.69827135 11.24408054 80.23507023 C9.92864581 82.04194255 9.92864581 82.04194255 8.70952511 84.25936794 C6.33183983 88.00797375 4.52102267 90.5649705 0.14308357 91.81711006 C-3.45177063 92.10936374 -6.94863716 92.11326792 -10.55444336 92.02172852 C-11.92491487 92.0191869 -13.29539862 92.02062062 -14.66586304 92.02571106 C-18.37096077 92.02828496 -22.07341599 91.97552264 -25.77790141 91.91254544 C-29.6548208 91.85613554 -33.53180642 91.85098548 -37.40907288 91.84031677 C-44.74406857 91.81238602 -52.07785147 91.73859155 -59.412314 91.64817137 C-67.765229 91.54743951 -76.11820311 91.49805716 -84.47157466 91.45291245 C-101.64841701 91.35893582 -118.82408012 91.20071915 -136 91 C-134.25094933 87.37841917 -132.10373 84.18784452 -129.75 80.9375 C-129.32178955 80.34187256 -128.8935791 79.74624512 -128.45239258 79.13256836 C-123.98651191 72.94075108 -119.45213247 66.79870547 -114.91113281 60.66186523 C-114.34620117 59.89817627 -113.78126953 59.1344873 -113.19921875 58.34765625 C-112.70252686 57.67742432 -112.20583496 57.00719238 -111.6940918 56.31665039 C-109.99147803 54.17636115 -109.99147803 54.17636115 -109.23872375 52.18553162 C-108.0614673 49.81534742 -107.15221282 48.57098717 -105 47 C-100.52652593 46.20986372 -96.14567573 46.32276378 -91.62809181 46.50260735 C-89.3011577 46.59101676 -86.9782638 46.62914544 -84.64982605 46.6532135 C-78.03576388 46.72894574 -71.4251023 46.88142613 -64.81420898 47.09887695 C-60.76193184 47.22865133 -56.71323721 47.28885966 -52.6590023 47.30789375 C-51.12319553 47.32898083 -49.58749695 47.37631366 -48.05338478 47.45145988 C-39.71615423 48.00457865 -39.71615423 48.00457865 -32.39004135 44.64238548 C-29.40384011 41.30356317 -27.1341391 37.60831824 -24.97213173 33.70015049 C-23.60239796 31.30463817 -21.97753128 29.13034433 -20.3125 26.93359375 C-19.76368164 26.18698486 -19.21486328 25.44037598 -18.64941406 24.67114258 C-15.77292483 20.77579031 -12.89055862 16.88492425 -10 13 C-9.48244141 12.30229492 -8.96488281 11.60458984 -8.43164062 10.88574219 C-7.04522678 9.02223348 -5.64981715 7.16595192 -4.25 5.3125 C-3.47140625 4.27738281 -2.6928125 3.24226562 -1.890625 2.17578125 C-0.95476562 1.09876953 -0.95476562 1.09876953 0 0 Z " fill="#FEFEFE" transform="translate(287,239)"/>
<path d="M0 0 C69.3 0.495 69.3 0.495 140 1 C140 1.33 140 1.66 140 2 C139.14159515 1.97033646 138.28319031 1.94067291 137.39877319 1.91011047 C129.25030418 1.64580069 121.10617344 1.47547642 112.953619 1.40672016 C108.76279769 1.36816462 104.57885574 1.29523682 100.390625 1.1394043 C82.62564133 -0.2000049 82.62564133 -0.2000049 66.15802002 4.81072998 C61.68630587 9.09887873 58.851253 13.98918204 56.24105835 19.55966187 C54.19877192 23.57548389 51.4155513 26.98355993 48.625 30.5 C47.65012608 31.78901224 46.67825155 33.08030497 45.7109375 34.375 C45.25557617 34.98214844 44.80021484 35.58929688 44.33105469 36.21484375 C41.17715647 40.44472339 38.08386165 44.71887441 35 49 C30.71174195 44.98764091 27.38329547 40.60020178 24 35.8125 C22.85555661 34.21087472 21.71102259 32.60931419 20.56640625 31.0078125 C19.98133301 30.18571289 19.39625977 29.36361328 18.79345703 28.51660156 C15.85679777 24.39584419 12.8975474 20.29147178 9.9375 16.1875 C9.40189453 15.44153564 8.86628906 14.69557129 8.31445312 13.92700195 C6.15527527 10.92932507 4.00608866 8.00725223 1.62890625 5.17578125 C0 3 0 3 0 0 Z " fill="#D1D1D1" transform="translate(178,213)"/>
<path d="M0 0 C0.66 0 1.32 0 2 0 C3.85541812 2.42277738 5.59534159 4.8562453 7.3125 7.375 C8.39615476 8.93818028 9.48082473 10.50065718 10.56640625 12.0625 C11.1298877 12.87589844 11.69336914 13.68929687 12.27392578 14.52734375 C15.0537436 18.50952124 17.90000858 22.44288156 20.75 26.375 C21.29269531 27.12491211 21.83539063 27.87482422 22.39453125 28.64746094 C26.58735965 34.43816601 30.78819438 40.22308232 35 46 C34.505 46.99 34.505 46.99 34 48 C0.34 47.505 0.34 47.505 -34 47 C-29.50275262 39.12981708 -29.50275262 39.12981708 -26.8203125 35.609375 C-25.93110107 34.43435425 -25.93110107 34.43435425 -25.02392578 33.2355957 C-24.39728027 32.41534912 -23.77063477 31.59510254 -23.125 30.75 C-21.79089962 28.98886204 -20.45758722 27.22712694 -19.125 25.46484375 C-18.44566406 24.56749512 -17.76632812 23.67014648 -17.06640625 22.74560547 C-13.0993314 17.47460786 -9.20451913 12.15028758 -5.30517578 6.82910156 C-4.7532959 6.07725586 -4.20141602 5.32541016 -3.6328125 4.55078125 C-3.14699707 3.88731689 -2.66118164 3.22385254 -2.16064453 2.5402832 C-1 1 -1 1 0 0 Z " fill="#D7D7D7" transform="translate(287,239)"/>
</svg>
